# xmcd
#
# Track frame offsets:
#	150
#	11955
#	22163
#	35933
#	47813
#	61108
#	70718
#	82018
#	99495
#	110498
#	124020
#
# Disc length: 1803 seconds
#
# Revision: 0
# Processed by: cddbd v1.5.1PL0 Copyright (c) Steve Scherf et al.
# Submitted via: dBpowerAMP V4.0
#
DISCID=9807090b
DTITLE=Weary Hearts - By Heart
DYEAR=1989
DGENRE=Bluegrass
TTITLE0=Uphill Climb
TTITLE1=Honky-tonk Blues
TTITLE2=I Know the Way to You By Heart
TTITLE3=Stallin'
TTITLE4=Waiting for the King
TTITLE5=Stumbling Stones
TTITLE6=You're In My Heart
TTITLE7=She Once Lived Here
TTITLE8=Poor Old Cora
TTITLE9=Will You Be There
TTITLE10=Power In The Blood
EXTD=
EXTT0=
EXTT1=
EXTT2=
EXTT3=
EXTT4=
EXTT5=
EXTT6=
EXTT7=
EXTT8=
EXTT9=
EXTT10=
PLAYORDER=
